<svg width="63" height="63" viewBox="0 0 63 63" fill="none" xmlns="http://www.w3.org/2000/svg">
<path d="M44.1131 2.625C41.8026 2.64662 39.5051 2.97319 37.2802 3.59625L37.1227 3.6435C35.7218 3.40329 34.3045 3.27078 32.8833 3.24712C29.9617 3.19725 27.4496 3.885 25.4283 5.03213C23.4333 4.36013 19.2963 3.2025 14.9362 3.4335C11.8991 3.59362 8.5863 4.48875 6.13193 7.0035C3.6828 9.51825 2.38868 13.4085 2.66168 18.7031C2.73518 20.1653 3.16305 22.5461 3.87705 25.6331C4.5858 28.7175 5.58855 32.3269 6.83543 35.6213C8.0823 38.9156 9.44993 41.8792 11.5867 43.89C12.6524 44.898 14.1198 45.7459 15.8497 45.675C17.0651 45.6278 18.1649 45.1106 19.1126 44.3467C19.5746 44.9374 20.0681 45.1946 20.5169 45.4335C21.0813 45.7327 21.6326 45.9375 22.2022 46.074C23.7796 46.4785 25.4225 46.5598 27.0322 46.3129C27.7331 46.2 28.4707 45.9795 29.2057 45.6645C29.2319 46.4572 29.2634 47.2343 29.2976 48.0218C29.3973 50.5155 29.4629 52.8176 30.2347 54.8363C30.3581 55.167 30.6967 56.8654 32.0381 58.3642C33.3768 59.8657 36.0018 60.8003 38.9891 60.1808C41.0969 59.7424 43.7797 58.9522 45.5594 56.4952C47.3182 54.0645 48.1136 50.5785 48.271 44.9216C48.3104 44.6171 48.3577 44.3573 48.4076 44.1131L48.8276 44.1499H48.8748C51.1244 44.2496 53.5657 43.9399 55.6053 43.0211C57.4113 42.2074 58.7763 41.3884 59.7712 39.9315C60.0206 39.5719 60.2936 39.1361 60.3671 38.3827C60.4406 37.6346 59.9996 36.4586 59.2619 35.9179C57.784 34.8311 56.8574 35.2433 55.8626 35.4454C54.8826 35.6554 53.8886 35.7717 52.8806 35.7945C55.7497 31.1115 57.8051 26.1345 58.9784 21.7297C59.6714 19.131 60.0625 16.7344 60.0941 14.6396C60.1255 12.5449 59.9497 10.689 58.6555 9.0825C54.6104 4.06875 48.9221 2.68275 44.5226 2.6355C44.3861 2.632 44.2496 2.63113 44.1131 2.63288V2.625ZM43.9976 4.16588C48.1582 4.1265 53.4764 5.2605 57.2932 9.99337C58.1516 11.0565 58.4062 12.6105 58.3773 14.5267C58.3458 16.4404 57.9809 18.7294 57.3142 21.2389C56.0201 26.1004 53.5736 31.7651 50.1269 36.8524C50.2493 36.9372 50.3815 37.0068 50.5207 37.0597C51.2399 37.3485 52.8779 37.5952 56.1513 36.9443C56.9729 36.7736 57.5767 36.6608 58.2014 37.1227C58.3509 37.2468 58.4697 37.4038 58.5485 37.5814C58.6273 37.759 58.6639 37.9524 58.6555 38.1465C58.6208 38.4397 58.5095 38.7186 58.3327 38.955C57.7027 39.8764 56.4532 40.7505 54.8519 41.4697C53.437 42.1103 51.4053 42.4436 49.6045 42.4646C48.7015 42.4725 47.8694 42.4043 47.1633 42.1916L47.1161 42.1759C46.843 44.7247 46.2157 49.7621 45.8088 52.059C45.4807 53.9123 44.9084 55.3849 43.8138 56.4874C42.7218 57.5899 41.1783 58.254 39.0993 58.6871C36.5242 59.2226 34.6473 58.6451 33.4372 57.6555C32.2297 56.6711 31.6758 55.3613 31.3424 54.558C31.1141 54.0068 30.9959 53.2901 30.8804 52.332C30.7534 51.1849 30.6685 50.0335 30.6258 48.8801C30.5505 46.8581 30.5259 44.8344 30.5523 42.8111C29.4761 43.764 28.1373 44.3992 26.7014 44.6381C24.9952 44.919 23.4674 44.6434 22.5566 44.4229C22.11 44.3128 21.6782 44.1498 21.2703 43.9373C20.8451 43.7194 20.4434 43.4726 20.1757 42.9844C20.0179 42.7057 19.9675 42.3789 20.0339 42.0656C20.1199 41.7474 20.3103 41.4672 20.5747 41.2702C21.0682 40.8818 21.7166 40.6665 22.6957 40.467C24.4807 40.1126 25.1028 39.8685 25.4808 39.5771C25.8037 39.3277 26.1686 38.8237 26.8143 38.0809L26.8064 37.9837C25.6556 37.95 24.5274 37.6556 23.5068 37.1227C23.1367 37.5008 21.2362 39.4511 18.9183 42.1549C17.9444 43.2863 16.8682 43.9346 15.7316 43.9819C14.5949 44.0291 13.5686 43.4726 12.6971 42.6536C10.9514 41.0104 9.56018 38.1833 8.34743 34.9886C7.13993 31.7914 6.15293 28.2319 5.45468 25.2C4.75118 22.1681 4.33643 19.7243 4.27868 18.5456C4.01618 13.5345 5.22368 10.1588 7.29743 8.02987C9.37118 5.901 12.2114 5.0925 14.9834 4.94025C19.9552 4.662 24.6776 6.34463 25.6331 6.70688C27.4732 5.49413 29.8436 4.73812 32.8072 4.78537C34.2119 4.80491 35.61 4.981 36.9757 5.31037L37.0256 5.28938C37.6276 5.08463 38.2383 4.91313 38.8578 4.77487C40.5443 4.39421 42.2661 4.19185 43.9949 4.17112L43.9976 4.16588ZM44.3729 5.77762H44.0133C42.5931 5.79676 41.1779 5.95146 39.7871 6.23963C42.5478 7.44208 44.9735 9.30007 46.8536 11.6524C47.9925 13.0596 48.9372 14.6135 49.6623 16.2724C49.9353 16.9076 50.1191 17.4457 50.2214 17.8605C50.2739 18.0705 50.3107 18.2464 50.3212 18.4301C50.3309 18.5464 50.3211 18.6635 50.2923 18.7766L50.2766 18.8081C50.3527 20.916 49.8146 22.344 49.7489 24.3547C49.6991 25.8142 50.0823 27.5284 50.1768 29.3948C50.2661 31.1535 50.0482 33.0829 48.8722 34.9781C48.9702 35.0936 49.0647 35.2091 49.1557 35.3246C52.2663 30.5734 54.5107 25.3129 55.7051 20.832C56.3429 18.417 56.6842 16.2304 56.7131 14.4979C56.7393 12.7654 56.4059 11.508 55.9807 10.9856C52.6522 6.8565 48.1503 5.8065 44.3729 5.77762ZM32.4948 6.39187C29.5627 6.39712 27.4574 7.25813 25.8641 8.54438C24.2182 9.87525 23.1157 11.6944 22.3912 13.5608C21.6899 15.4259 21.2611 17.3824 21.1181 19.3699L21.1522 19.3515C22.0368 18.8685 23.1997 18.3881 24.4439 18.1099C25.6908 17.8316 27.0322 17.745 28.2476 18.2017C29.4629 18.6585 30.4683 19.7348 30.8332 21.3675C32.5788 29.2058 30.2898 32.1195 29.4446 34.3166C29.1275 35.114 28.8541 35.9281 28.6256 36.7552C28.7306 36.7255 28.8364 36.7045 28.9432 36.6922C29.4043 36.6673 29.8644 36.7575 30.2819 36.9548C31.1324 37.296 31.7152 38.01 32.0302 38.829C32.1124 39.046 32.1711 39.2735 32.2061 39.5115C32.2411 39.6113 32.2577 39.7136 32.2559 39.8186C32.1616 42.8158 32.1721 45.8154 32.2874 48.8119C32.3452 50.1086 32.4292 51.2479 32.5368 52.1482C32.6418 53.046 32.7941 53.7285 32.8912 53.9595C33.2062 54.7313 33.6708 55.7393 34.5108 56.4244C35.3508 57.1095 36.5504 57.5636 38.7476 57.1069C40.6533 56.7105 41.8293 56.1619 42.6168 55.3665C43.3991 54.5764 43.8689 53.4765 44.1682 51.7886C44.6171 49.2607 45.5201 41.9344 45.6277 40.5536C45.5804 39.5168 45.7379 38.7161 46.0792 38.1071C46.4336 37.4824 46.9796 37.0991 47.4494 36.8918C47.6857 36.7868 47.9062 36.7185 48.0873 36.6686C47.8943 36.4016 47.6929 36.1407 47.4836 35.8864C46.8047 35.0923 46.2482 34.2014 45.8324 33.243C45.6321 32.8488 45.4194 32.4609 45.1945 32.0801C44.8664 31.5026 44.4491 30.7808 44.0133 29.9696C43.1392 28.3447 42.1889 26.376 41.6954 24.4571C41.2046 22.5435 41.1311 20.5616 42.3911 19.1625C43.5093 17.9209 45.4675 17.4064 48.4102 17.6951C48.3236 17.4431 48.2711 17.2331 48.1241 16.8971C47.46 15.372 46.592 13.9441 45.5437 12.6525C43.0499 9.56025 39.0153 6.49425 32.7783 6.3945H32.4948V6.39187ZM16.0203 6.51525C15.7053 6.51525 15.3903 6.524 15.0753 6.5415C12.5711 6.68063 10.2033 7.38675 8.51018 9.12975C6.8118 10.8701 5.69618 13.7261 5.93768 18.4564C5.98755 19.3489 6.38918 21.8584 7.07693 24.8351C7.76468 27.8171 8.74118 31.3215 9.91193 34.4164C11.0827 37.5139 12.5054 40.2098 13.8547 41.4855C14.5346 42.1234 15.1252 42.3806 15.6607 42.3596C16.1988 42.3334 16.8446 42.0341 17.6373 41.1128C19.081 39.4233 20.578 37.7801 22.1261 36.1856C21.0323 35.2684 20.1903 34.0877 19.6796 32.7547C19.173 31.4345 19.0192 30.005 19.2333 28.6073C19.4879 26.8275 19.5221 25.1633 19.4932 23.8508C19.4617 22.5698 19.3672 21.7192 19.3672 21.1864V21.1129C19.3645 18.3386 19.8615 15.5865 20.8346 12.9885C21.5276 11.1982 22.5618 9.37913 24.1132 7.9065C22.5907 7.42088 19.8869 6.68063 16.9601 6.5415C16.6453 6.52465 16.3302 6.51589 16.0151 6.51525H16.0203ZM46.7696 19.2255C45.0869 19.2465 44.1419 19.6691 43.6458 20.2204C42.9423 21.0026 42.8767 22.3729 43.3124 24.0634C43.7482 25.7539 44.6433 27.6465 45.4886 29.2162C45.9086 30.0037 46.3181 30.7125 46.6488 31.2847C46.9822 31.8623 47.2263 32.2718 47.3733 32.6235C47.5133 32.9403 47.6603 33.2299 47.8143 33.4924C48.4653 32.1562 48.5834 30.8464 48.5152 29.4787C48.4286 27.7882 48.0243 26.0584 48.0847 24.3075C48.1503 22.26 48.5677 20.9239 48.6044 19.341C47.9956 19.2668 47.3829 19.2282 46.7696 19.2255ZM26.3471 19.5011C25.8328 19.505 25.3206 19.5649 24.8193 19.6796C23.8227 19.9146 22.8609 20.2781 21.9581 20.7611C21.6553 20.9186 21.3666 21.1015 21.0918 21.3097L21.0393 21.357C21.0551 21.7087 21.1259 22.5619 21.1574 23.814C21.1837 25.1869 21.1522 26.9378 20.8792 28.8278C20.2859 32.9438 23.3624 36.351 26.9797 36.3563C27.1897 35.511 27.5388 34.6553 27.8853 33.7522C28.8933 31.1194 30.8752 29.2005 29.2057 21.7061C28.9327 20.4802 28.3919 19.9841 27.6464 19.7033C27.229 19.5583 26.7888 19.4898 26.3471 19.5011ZM45.9821 19.992H46.1081C46.2726 19.9972 46.4213 20.0147 46.5543 20.0445C46.675 20.0688 46.7905 20.1141 46.8955 20.1784C46.9434 20.2065 46.9847 20.2445 47.0168 20.2897C47.0489 20.3349 47.0711 20.3865 47.0819 20.4409V20.4619C47.0888 20.5772 47.0574 20.6917 46.9927 20.7874C46.9194 20.9197 46.8275 21.0409 46.7197 21.147C46.4653 21.4169 46.1298 21.5966 45.7642 21.6589C45.4057 21.7013 45.044 21.6128 44.7457 21.4095C44.6256 21.3302 44.517 21.2348 44.4228 21.126C44.3432 21.041 44.2887 20.9356 44.2653 20.8215C44.2596 20.7654 44.266 20.7086 44.2841 20.6552C44.3022 20.6018 44.3316 20.5528 44.3703 20.5118C44.4542 20.4237 44.5528 20.3508 44.6617 20.2965C45.0775 20.1056 45.5274 20.0003 45.9847 19.9867L45.9821 19.992ZM26.5886 20.3962C26.7198 20.3962 26.8572 20.4067 27.0007 20.4277C27.3787 20.4802 27.7173 20.5774 27.9746 20.7218C28.1006 20.7865 28.2108 20.8714 28.3053 20.9764C28.3543 21.0341 28.3911 21.098 28.4156 21.168C28.4401 21.238 28.4479 21.3106 28.4392 21.3859C28.4153 21.5251 28.3504 21.6539 28.2528 21.756C28.1512 21.8783 28.0318 21.9845 27.8984 22.071C27.5724 22.293 27.1769 22.3891 26.7854 22.3414C26.3882 22.2772 26.023 22.0845 25.7459 21.7927C25.6307 21.6753 25.5319 21.5428 25.4519 21.399C25.3702 21.2731 25.334 21.123 25.3496 20.9737C25.3863 20.7113 25.6094 20.58 25.8221 20.5012C26.0679 20.4233 26.3259 20.3912 26.5833 20.4067L26.5886 20.3962ZM49.0585 38.0677H49.0507C48.6858 38.199 48.3866 38.2515 48.1319 38.3565C47.8783 38.4506 47.6681 38.6346 47.5413 38.8736C47.3838 39.1493 47.2526 39.6401 47.2919 40.4749C47.405 40.5495 47.529 40.6062 47.6594 40.6429C48.0821 40.7689 48.7934 40.8529 49.5888 40.8397C51.1691 40.8214 53.1168 40.4644 54.1511 39.9971C54.9989 39.6139 55.7864 39.1151 56.4899 38.5166C53.0328 39.2096 51.0824 39.0259 49.8828 38.5455C49.5869 38.4248 49.3095 38.2657 49.0585 38.0677ZM29.1401 38.2909H29.0876C28.9563 38.3014 28.7647 38.3434 28.3972 38.7424C27.5309 39.6821 27.2317 40.2701 26.5177 40.8214C25.8089 41.3726 24.8823 41.664 23.0343 42.0315C22.4489 42.147 22.1156 42.2756 21.8898 42.378C21.9633 42.4357 21.9554 42.4515 22.0631 42.5066C22.3334 42.651 22.6826 42.777 22.9608 42.8479C23.7562 43.0395 25.0608 43.2653 26.4232 43.0395C27.7856 42.8138 29.2004 42.1811 30.4079 40.5379C30.6179 40.2544 30.6389 39.8344 30.4683 39.3829C30.2924 38.9366 29.9144 38.5481 29.6467 38.4379C29.4869 38.3626 29.3157 38.3146 29.1401 38.2961V38.2909Z" fill="#1D1A19"/>
</svg>
