<svg width="63" height="63" viewBox="0 0 63 63" fill="none" xmlns="http://www.w3.org/2000/svg">
<g clip-path="url(#clip0_5_178)">
<path d="M31.5699 50.6755H19.3134V38.6474H31.5704L31.5699 50.6755ZM19.3134 60.1112H10.0273V50.6745H19.3134V60.1112ZM10.0278 50.6745H2.22961V42.9023H10.0273L10.0278 50.6745ZM31.3858 62.8876V50.6745C44.3845 50.6745 54.4123 37.9071 49.3984 24.3976C47.5404 19.4019 43.6428 15.3315 38.4423 13.4804C25.071 8.67071 12.2579 18.6616 12.2579 31.4295H0C0 11.0755 19.8696 -5.02392 41.5997 1.63735C51.0704 4.59884 58.4985 12.0004 61.4693 21.438C68.1537 43.0869 51.9971 62.8871 31.3853 62.8871L31.3858 62.8876Z" fill="#0080FF"/>
</g>
<defs>
<clipPath id="clip0_5_178">
<rect width="63" height="63" fill="white"/>
</clipPath>
</defs>
</svg>
