<svg width="63" height="63" viewBox="0 0 63 63" fill="none" xmlns="http://www.w3.org/2000/svg">
<path d="M42.9655 43.8157C43.341 42.5276 43.1978 41.3473 42.5718 40.4708C41.9993 39.666 41.0337 39.2009 39.8706 39.1473L17.8516 38.8613C17.7084 38.8613 17.5834 38.7899 17.5115 38.6826C17.4397 38.5753 17.422 38.4321 17.4579 38.2889C17.5293 38.0743 17.7439 37.9133 17.9767 37.8951L40.1925 37.6092C42.8218 37.4842 45.6839 35.3555 46.6855 32.7439L47.9553 29.4349C48.009 29.2917 48.0267 29.149 47.9912 29.0057C46.5609 22.5295 40.7836 17.7002 33.8792 17.7002C27.5113 17.7002 22.1096 21.8144 20.1777 27.5203C18.868 26.545 17.242 26.0923 15.6166 26.2505C12.5577 26.5546 10.1076 29.0052 9.80339 32.0637C9.73202 32.8507 9.78567 33.62 9.96434 34.3351C4.97306 34.4784 0.984375 38.5566 0.984375 43.5829C0.984375 44.0303 1.0203 44.4772 1.07395 44.9246C1.08935 45.0279 1.14096 45.1224 1.21957 45.1912C1.29819 45.2599 1.39869 45.2986 1.50314 45.3001H42.1431C42.3754 45.3001 42.5905 45.1392 42.6618 44.9064L42.9655 43.8157ZM49.9777 29.6667C49.7808 29.6667 49.5662 29.6667 49.3694 29.6845C49.2261 29.6845 49.1011 29.7918 49.0475 29.935L48.1891 32.9221C47.8136 34.2101 47.9568 35.3904 48.5828 36.267C49.1553 37.0717 50.1209 37.5368 51.284 37.5905L55.9706 37.8764C56.1138 37.8764 56.2388 37.9478 56.3107 38.0551C56.3825 38.1624 56.4003 38.3233 56.3643 38.4488C56.293 38.6634 56.0784 38.8244 55.8456 38.8426L50.9611 39.1291C48.3136 39.2541 45.4698 41.3828 44.4682 43.9943L44.1103 44.9064C44.039 45.085 44.164 45.2642 44.3609 45.2642H61.139C61.3359 45.2642 61.5146 45.1392 61.5682 44.9423C61.8542 43.9047 62.0156 42.8136 62.0156 41.687C62.0156 35.0685 56.6139 29.6667 49.9777 29.6667Z" fill="#1D1A19"/>
</svg>
