<svg width="65" height="63" viewBox="0 0 65 63" fill="none" xmlns="http://www.w3.org/2000/svg">
<g clip-path="url(#clip0_5_277)">
<path d="M20.773 61.971C19.2686 61.971 17.848 61.3025 16.8868 60.0906L2.2614 41.913C1.30021 40.701 0.924229 39.1551 1.30021 37.6505L6.52364 14.9598C6.85787 13.4554 7.86081 12.2435 9.23998 11.575L30.3844 1.46215C31.0532 1.12818 31.8054 0.960938 32.5576 0.960938C33.3098 0.960938 34.0617 1.12793 34.7304 1.46241L55.8752 11.5333C57.2541 12.2018 58.257 13.4137 58.5912 14.9181L63.8147 37.6087C64.1492 39.1131 63.8147 40.6593 62.8537 41.8712L48.2279 60.0489C47.2667 61.2188 45.846 61.9293 44.3416 61.9293L20.773 61.971Z" fill="#326DE6"/>
<path d="M32.5152 2.00612C33.1004 2.00612 33.6854 2.13137 34.2286 2.3821L55.3733 12.453C56.4597 12.9962 57.2954 13.9991 57.5462 15.1693L62.7696 37.86C63.0621 39.0719 62.7696 40.3256 61.9757 41.2865L47.35 59.4644C46.5978 60.4253 45.4277 60.9686 44.216 60.9686H20.7729C19.561 60.9686 18.391 60.4253 17.6388 59.4644L3.01322 41.2865C2.26102 40.3256 1.96828 39.0719 2.21927 37.86L7.4427 15.1693C7.73519 13.9574 8.52914 12.9545 9.61557 12.453L30.7605 2.34061C31.3038 2.13162 31.9305 2.00638 32.5154 2.00638M32.5154 0.0422452C31.638 0.0422452 30.7605 0.251233 29.9246 0.627209L8.78013 10.7401C7.10848 11.5341 5.93855 12.9965 5.52057 14.7934L0.296884 37.484C-0.120839 39.2809 0.296884 41.1195 1.46706 42.5822L16.0927 60.7598C17.2211 62.1805 18.9343 62.9744 20.7311 62.9744H44.174C45.9709 62.9744 47.6843 62.1805 48.8125 60.7598L63.4383 42.5819C64.6082 41.1613 65.0262 39.2809 64.6083 37.4837L59.3848 14.7931C58.9671 12.9962 57.7969 11.5338 56.1255 10.7398L35.0643 0.626703C34.2703 0.25098 33.3929 0.0419922 32.5152 0.0419922" fill="white"/>
<path d="M53.7016 36.0632C53.6598 36.0632 53.6598 36.0632 53.7016 36.0632H53.6599C53.6181 36.0632 53.5764 36.0632 53.5764 36.0215C53.4929 36.0215 53.4094 35.9797 53.3256 35.9797C53.0331 35.938 52.7824 35.8962 52.5317 35.8962C52.4062 35.8962 52.2809 35.8962 52.1137 35.8542H52.072C51.1945 35.7707 50.4841 35.6872 49.8153 35.4783C49.5229 35.3528 49.4394 35.1858 49.3556 35.0185C49.3556 34.9768 49.3139 34.9768 49.3139 34.935L48.7707 34.768C49.0275 32.8023 48.9284 30.8063 48.4782 28.8757C48.0222 26.9288 47.2303 25.0764 46.1381 23.4015L46.556 23.0255V22.942C46.556 22.733 46.5978 22.524 46.7648 22.315C47.2662 21.8553 47.8932 21.4793 48.6454 21.0196C48.7707 20.9361 48.8959 20.8944 49.0214 20.8106C49.2721 20.6854 49.4811 20.5602 49.7318 20.3929C49.7736 20.3512 49.8571 20.3094 49.9408 20.2259C49.9826 20.1839 50.0243 20.1839 50.0243 20.1422C50.6093 19.6407 50.7348 18.805 50.3168 18.2615C50.1078 17.9691 49.7318 17.8021 49.3556 17.8021C49.0216 17.8021 48.7289 17.9273 48.4364 18.1363L48.3529 18.2198C48.2694 18.2615 48.2274 18.3453 48.1439 18.387C47.935 18.596 47.7677 18.763 47.6007 18.972C47.5172 19.0555 47.4337 19.181 47.3082 19.2645C46.723 19.8914 46.1798 20.3929 45.6366 20.7689C45.5114 20.8524 45.3861 20.8942 45.2606 20.8944C45.1771 20.8944 45.0934 20.8944 45.0099 20.8524H44.9264L44.4247 21.1869C43.8815 20.6019 43.2965 20.1004 42.7115 19.599C40.1926 17.6301 37.1612 16.4262 33.9778 16.1304L33.9361 15.5872L33.8526 15.5037C33.7271 15.3782 33.5601 15.253 33.5181 14.9605C33.4763 14.2918 33.5601 13.5396 33.6436 12.7039V12.6621C33.6436 12.5366 33.6853 12.3696 33.7271 12.2442C33.7688 11.9937 33.8106 11.7427 33.8526 11.4502V11.0742C33.8526 10.322 33.2673 9.69531 32.5571 9.69531C32.2227 9.69531 31.8884 9.8623 31.6377 10.113C31.3872 10.3638 31.2617 10.698 31.2617 11.0742V11.4085C31.2617 11.7009 31.3035 11.9517 31.387 12.2024C31.4287 12.3279 31.4287 12.4531 31.4705 12.6204V12.6621C31.5539 13.4978 31.6794 14.25 31.5959 14.9187C31.5542 15.2112 31.387 15.3365 31.2617 15.462L31.1782 15.5455L31.1362 16.0887C30.384 16.1722 29.6318 16.2557 28.8796 16.4229C25.6621 17.1334 22.8205 18.7633 20.6059 21.1031L20.1879 20.8106H20.1044C20.0209 20.8106 19.9372 20.8524 19.8537 20.8524C19.7283 20.8524 19.6029 20.8106 19.4774 20.7271C18.9342 20.3512 18.391 19.8077 17.806 19.181C17.7225 19.0975 17.639 18.972 17.5135 18.8885C17.3463 18.6795 17.1791 18.5123 16.9701 18.3035C16.9283 18.2615 16.8448 18.22 16.7613 18.1363C16.7196 18.0946 16.6778 18.0946 16.6778 18.0528C16.419 17.8389 16.0942 17.7207 15.7584 17.7183C15.3822 17.7183 15.0062 17.8856 14.7972 18.178C14.3792 18.7213 14.5047 19.557 15.0897 20.0584C15.1314 20.0584 15.1314 20.1004 15.1732 20.1004C15.2567 20.1422 15.2987 20.2257 15.3822 20.2674C15.6329 20.4344 15.8419 20.5599 16.0926 20.6854C16.2181 20.7271 16.3434 20.8106 16.4689 20.8944C17.2208 21.3539 17.8478 21.7301 18.3492 22.1898C18.5582 22.3985 18.5582 22.6075 18.5582 22.8165V22.9L18.976 23.2762C18.8925 23.4015 18.809 23.4852 18.767 23.6105C16.6776 26.9118 15.8836 30.798 16.4269 34.6426L15.8836 34.8095C15.8836 34.8515 15.8419 34.8515 15.8419 34.893C15.7584 35.0603 15.6329 35.2275 15.3822 35.3528C14.7555 35.5617 14.0033 35.6455 13.1258 35.729H13.0838C12.9586 35.729 12.7913 35.729 12.6661 35.7707C12.4154 35.7707 12.1646 35.8125 11.8721 35.8542C11.7886 35.8542 11.7052 35.8962 11.6214 35.8962C11.5797 35.8962 11.5379 35.8962 11.4959 35.938C10.7437 36.105 10.284 36.8154 10.4095 37.4839C10.535 38.0691 11.0782 38.4453 11.7466 38.4453C11.8721 38.4453 11.9556 38.4453 12.0811 38.4033C12.1229 38.4033 12.1646 38.4033 12.1646 38.3616C12.2481 38.3616 12.3316 38.3198 12.4151 38.3198C12.7078 38.2363 12.9168 38.1528 13.1676 38.0273C13.2928 37.9856 13.418 37.9019 13.5435 37.8604H13.5853C14.3792 37.5676 15.0897 37.3169 15.7584 37.2334H15.8419C16.0926 37.2334 16.2599 37.3586 16.3851 37.4424C16.4269 37.4424 16.4269 37.4841 16.4686 37.4841L17.0538 37.4006C18.0568 40.4927 19.9789 43.2508 22.528 45.2567C23.113 45.7161 23.6979 46.0924 24.3249 46.4686L24.0742 47.0116C24.0742 47.0536 24.1159 47.0536 24.1159 47.095C24.1994 47.2623 24.2829 47.4713 24.1994 47.7638C23.9489 48.3907 23.5727 49.0174 23.113 49.7279V49.7696C23.0295 49.8951 22.946 49.9786 22.8625 50.1039C22.6952 50.3129 22.5697 50.5218 22.4025 50.7726C22.3608 50.8143 22.319 50.8978 22.2773 50.9816C22.2773 51.0233 22.2355 51.0651 22.2355 51.0651C21.9013 51.7755 22.152 52.5695 22.7787 52.8619C22.9457 52.9456 23.1129 52.9874 23.2802 52.9874C23.7817 52.9874 24.2831 52.653 24.5339 52.1932C24.5339 52.1515 24.5756 52.1097 24.5756 52.1097C24.6174 52.0263 24.6591 51.9428 24.7009 51.9008C24.8264 51.6083 24.8681 51.3993 24.9516 51.1486L25.0771 50.7726C25.3696 49.9369 25.5786 49.2682 25.9545 48.6832C26.1215 48.4325 26.3308 48.3907 26.4978 48.307C26.5395 48.307 26.5395 48.307 26.5812 48.2652L26.874 47.722C28.7126 48.4325 30.7185 48.8084 32.7241 48.8084C33.9361 48.8084 35.1897 48.6832 36.3599 48.3907C37.0963 48.2263 37.822 48.0169 38.5328 47.7638L38.7833 48.2235C38.8253 48.2235 38.8253 48.2235 38.867 48.2652C39.076 48.307 39.243 48.3907 39.4102 48.6415C39.7445 49.2264 39.9952 49.9369 40.2877 50.7308V50.7726L40.4132 51.1486C40.4967 51.3993 40.5384 51.65 40.6636 51.9008C40.7056 51.9843 40.7474 52.0263 40.7891 52.1097C40.7891 52.1515 40.8311 52.1932 40.8311 52.1932C41.0816 52.6947 41.5831 52.9874 42.0846 52.9874C42.2519 52.9874 42.419 52.9456 42.586 52.8619C42.8785 52.695 43.1292 52.444 43.213 52.1097C43.2965 51.7755 43.2965 51.3993 43.1295 51.0651C43.1295 51.0233 43.0875 51.0233 43.0875 50.9816C43.0458 50.8981 43.004 50.8146 42.9623 50.7726C42.8368 50.5218 42.6698 50.3129 42.5025 50.1039C42.419 49.9786 42.3356 49.8951 42.2521 49.7699V49.7279C41.7921 49.0174 41.3741 48.3907 41.1654 47.7638C41.0819 47.4713 41.1654 47.3043 41.2071 47.0953C41.2071 47.0536 41.2489 47.0536 41.2489 47.0118L41.0399 46.5103C43.2547 45.2149 45.1351 43.376 46.556 41.1197C47.3082 39.9495 47.8932 38.6541 48.3109 37.3586L48.8124 37.4421C48.8544 37.4421 48.8544 37.4004 48.8959 37.4004C49.0631 37.3169 49.1886 37.1917 49.4394 37.1917H49.5229C50.1916 37.2751 50.9018 37.5256 51.696 37.8184H51.7377C51.863 37.8601 51.9882 37.9436 52.1137 37.9853C52.3644 38.1108 52.5734 38.1943 52.8659 38.2781C52.9494 38.2781 53.0329 38.3198 53.1166 38.3198C53.1584 38.3198 53.2001 38.3198 53.2419 38.3616C53.3674 38.4033 53.4509 38.4033 53.5764 38.4033C54.2031 38.4033 54.7463 37.9856 54.9135 37.4424C54.9135 36.9409 54.4538 36.2722 53.7016 36.0635M34.3538 34.0158L32.5151 34.8935L30.6765 34.0158L30.217 32.052L31.4705 30.4641H33.5181L34.7718 32.052L34.3538 34.0158ZM45.2606 29.6701C45.5847 31.0519 45.6834 32.477 45.5531 33.8904L39.1595 32.052C38.5745 31.885 38.2403 31.2998 38.3655 30.7148C38.4073 30.5476 38.491 30.3803 38.6163 30.2551L43.6727 25.7001C44.3829 26.8703 44.9261 28.2077 45.2606 29.6701ZM41.6668 23.1927L36.1927 27.079C35.7329 27.3715 35.106 27.2877 34.73 26.8283C34.6048 26.7028 34.563 26.5355 34.521 26.3686L34.145 19.557C36.991 19.8847 39.6421 21.1662 41.6668 23.1927ZM29.5483 19.7657C30.008 19.6822 30.4258 19.5987 30.8855 19.5152L30.5095 26.2011C30.4678 26.786 30.008 27.2875 29.3811 27.2875C29.2141 27.2875 29.0051 27.2457 28.8796 27.1623L23.3219 23.1927C25.0353 21.4793 27.1665 20.3089 29.5483 19.7657ZM21.3161 25.6998L26.2888 30.1293C26.7485 30.5056 26.7902 31.2158 26.4143 31.6755C26.2888 31.8425 26.1218 31.968 25.9128 32.01L19.4357 33.8904C19.1849 31.0488 19.8117 28.1654 21.3161 25.6998ZM20.1876 37.0244L26.8322 35.896C27.3755 35.8542 27.8769 36.2305 28.0022 36.7737C28.0439 37.0242 28.0439 37.2334 27.9604 37.4424L25.4113 43.585C23.0712 42.0806 21.1906 39.7822 20.1876 37.0244ZM35.4407 45.3402C34.4795 45.5491 33.5183 45.6744 32.5154 45.6744C31.053 45.6744 29.6321 45.4239 28.2952 45.0059L31.5962 39.0303C31.9304 38.6541 32.4736 38.4871 32.9334 38.7378C33.1286 38.8571 33.2989 39.0132 33.4348 39.1973L36.6524 45.0059C36.2764 45.1312 35.8587 45.2149 35.4407 45.3402ZM43.589 39.5318C42.5443 41.2032 41.1651 42.5403 39.5775 43.585L36.9449 37.2749C36.8194 36.7737 37.0284 36.2305 37.5298 35.9795C37.6968 35.896 37.9058 35.8542 38.1148 35.8542L44.8009 36.9827C44.5502 37.9019 44.1322 38.7378 43.589 39.5318Z" fill="white"/>
</g>
<defs>
<clipPath id="clip0_5_277">
<rect width="64.78" height="63" fill="white"/>
</clipPath>
</defs>
</svg>
