<svg width="63" height="63" viewBox="0 0 63 63" fill="none" xmlns="http://www.w3.org/2000/svg">
<path d="M38.7137 21.8014H40.3487L45.0088 17.1412L45.2377 15.1628C42.5681 12.8066 39.3419 11.1698 35.8638 10.4071C32.3858 9.64436 28.7707 9.78088 25.3601 10.8037C21.9494 11.8266 18.8559 13.702 16.3716 16.2529C13.8872 18.8037 12.0942 21.9458 11.1619 25.3823C11.681 25.1695 12.2561 25.135 12.7969 25.2842L22.1171 23.747C22.1171 23.747 22.5913 22.9622 22.8366 23.0114C24.8336 20.8181 27.5934 19.4712 30.5511 19.2462C33.5087 19.0213 36.4405 19.9354 38.7462 21.8014H38.7137Z" fill="#F44336"/>
<path d="M51.6475 25.382C50.5762 21.4376 48.377 17.8915 45.3198 15.1787L38.7791 21.7194C40.1423 22.8331 41.2347 24.2419 41.974 25.8394C42.7133 27.4368 43.0802 29.1814 43.047 30.9413V32.1024C43.8155 32.0959 44.5778 32.2416 45.2898 32.5312C46.0017 32.8208 46.6493 33.2486 47.1951 33.7897C47.7409 34.3309 48.1741 34.9748 48.4698 35.6843C48.7654 36.3938 48.9176 37.1548 48.9176 37.9234C48.9176 38.692 48.7654 39.453 48.4698 40.1625C48.1741 40.872 47.7409 41.5159 47.1951 42.057C46.6493 42.5982 46.0017 43.026 45.2898 43.3156C44.5778 43.6052 43.8155 43.7509 43.047 43.7444H31.4048L30.2439 44.9216V51.9037L31.4048 53.0646H43.047C46.298 53.0899 49.4708 52.0682 52.0961 50.1505C54.7214 48.2328 56.6597 45.521 57.6243 42.4163C58.5889 39.3116 58.5286 35.9788 57.4523 32.911C56.3759 29.8433 54.3405 27.2034 51.6475 25.382Z" fill="#448AFF"/>
<path d="M19.7464 52.9998H31.3884V43.6796H19.7464C18.917 43.6791 18.0973 43.5007 17.3428 43.1562L15.7077 43.6632L11.0148 48.3231L10.606 49.9584C13.2375 51.9458 16.4487 53.0143 19.7464 52.9998Z" fill="#43A047"/>
<path d="M19.7464 22.7657C16.5919 22.7846 13.5222 23.7881 10.9658 25.6363C8.40939 27.4845 6.49408 30.0849 5.48734 33.0744C4.48061 36.064 4.43273 39.2933 5.3504 42.3114C6.26806 45.3294 8.10544 47.9855 10.6059 49.9086L17.3591 43.1557C16.5008 42.768 15.7494 42.1779 15.1693 41.436C14.5893 40.694 14.1979 39.8225 14.0287 38.896C13.8596 37.9695 13.9177 37.0159 14.1982 36.1168C14.4787 35.2178 14.9731 34.4002 15.639 33.7343C16.305 33.0684 17.1225 32.5739 18.0216 32.2935C18.9206 32.013 19.8743 31.9548 20.8007 32.124C21.7272 32.2931 22.5988 32.6845 23.3407 33.2646C24.0826 33.8446 24.6728 34.5961 25.0604 35.4543L31.8136 28.7012C30.3962 26.8481 28.5694 25.3481 26.476 24.3185C24.3825 23.2888 22.0793 22.7573 19.7464 22.7657Z" fill="#FFC107"/>
</svg>
