<svg width="63" height="63" viewBox="0 0 63 63" fill="none" xmlns="http://www.w3.org/2000/svg">
<path d="M58.1411 25.7572L58.0682 25.5505L50.5653 5.22904C50.4182 4.833 50.1477 4.49478 49.7936 4.26435C49.5749 4.11938 49.3291 4.02029 49.071 3.97307C48.8129 3.92585 48.548 3.9315 48.2921 3.98966C48.0363 4.04782 47.7949 4.15729 47.5826 4.31144C47.3703 4.46559 47.1915 4.66122 47.057 4.88648C46.9492 5.05685 46.8682 5.24276 46.8168 5.43773L41.7532 19.6875H21.2467L16.1831 5.43773C16.1185 5.18152 16.0032 4.94085 15.8441 4.72995C15.6849 4.51906 15.485 4.34222 15.2564 4.20988C15.0277 4.07755 14.7748 3.99241 14.5126 3.95949C14.2504 3.92658 13.9843 3.94656 13.73 4.01826C13.5444 4.07344 13.3679 4.1557 13.2063 4.26238C12.8519 4.49332 12.5813 4.83228 12.4346 5.22904L4.93561 25.5544L4.85686 25.7572C3.77156 28.6757 3.63409 31.8621 4.464 34.8633C5.2939 37.8645 7.04893 40.5276 9.47948 42.4739L9.50901 42.4975L9.57201 42.5487L20.9849 51.4297L26.647 55.8732L30.0864 58.5743C30.4852 58.8905 30.9792 59.0626 31.4881 59.0626C31.9971 59.0626 32.4911 58.8905 32.8899 58.5743L36.3293 55.8732L41.9914 51.4297L53.485 42.4975L53.5165 42.4719C55.9473 40.5262 57.7028 37.8637 58.5335 34.8629C59.3641 31.8621 59.2274 28.6759 58.143 25.7572H58.1411Z" fill="#E53935"/>
<path d="M58.141 25.7575L58.0682 25.5508C54.3926 26.3374 50.9438 27.949 47.9823 30.264L31.5098 43.1987L41.9973 51.43L53.4928 42.4978L53.5243 42.4722C55.9535 40.5253 57.7071 37.8622 58.5359 34.8615C59.3647 31.8608 59.2265 28.6752 58.141 25.7575Z" fill="#EF6C00"/>
<path d="M20.9849 51.4296L26.647 55.873L30.0864 58.5742C30.4852 58.8904 30.9792 59.0624 31.4881 59.0624C31.9971 59.0624 32.4911 58.8904 32.8899 58.5742L36.3293 55.873L41.9914 51.4296L31.5 43.2002L20.9849 51.4296Z" fill="#F9A825"/>
<path d="M15.0175 30.262C12.0571 27.9506 8.61041 26.3418 4.93752 25.5566L4.85877 25.7575C3.77326 28.6758 3.63548 31.8621 4.46503 34.8632C5.29458 37.8644 7.04922 40.5276 9.47943 42.4741L9.50896 42.4977L9.57196 42.5489L20.9848 51.43L31.4802 43.2006L15.0175 30.262Z" fill="#EF6C00"/>
</svg>
