<svg width="63" height="63" viewBox="0 0 63 63" fill="none" xmlns="http://www.w3.org/2000/svg">
<path d="M20.055 27.248C20.055 27.9042 20.1075 28.4292 20.2387 28.8755C20.37 29.1905 20.5537 29.6105 20.79 30.083C20.895 30.188 20.9212 30.3455 20.9212 30.4767C20.9212 30.6605 20.8162 30.818 20.58 31.0017L19.4775 31.7367C19.32 31.8417 19.1625 31.8942 19.0312 31.8942C18.8475 31.8942 18.69 31.7892 18.5062 31.6317C18.27 31.3692 18.06 31.1067 17.8762 30.818C17.7187 30.5292 17.535 30.188 17.3512 29.7942C15.9862 31.3955 14.28 32.2092 12.2062 32.2092C10.7362 32.2092 9.58124 31.7892 8.71499 30.9492C7.87499 30.1092 7.42874 28.9805 7.42874 27.563C7.42874 26.1192 7.95374 24.938 9.00374 23.993C10.08 23.1005 11.4975 22.628 13.2825 22.628C13.8862 22.628 14.4375 22.6805 15.1462 22.7855C15.75 22.8642 16.4587 22.9955 17.1412 23.153V21.893C17.1412 20.5542 16.8787 19.688 16.3275 19.0842C15.75 18.533 14.8312 18.2967 13.4925 18.2967C12.8625 18.2967 12.2325 18.3755 11.6025 18.5067C10.9462 18.6642 10.3162 18.848 9.71249 19.1105C9.42374 19.2155 9.18749 19.2942 9.10874 19.3205C8.97749 19.373 8.89874 19.373 8.81999 19.373C8.58374 19.373 8.45249 19.2155 8.45249 18.848V17.9817C8.45249 17.7192 8.47874 17.5092 8.58374 17.378C8.66249 17.2467 8.81999 17.1417 9.05624 17.063C9.68624 16.6955 10.395 16.433 11.2612 16.223C12.1523 15.99 13.0702 15.8752 13.9912 15.8817C16.065 15.8817 17.5875 16.3542 18.5587 17.2992C19.53 18.2442 20.0025 19.688 20.0025 21.6042V27.248H20.055ZM12.9675 29.9255C13.545 29.9255 14.1225 29.8205 14.7525 29.6105C15.3825 29.4005 15.9337 29.0067 16.4062 28.4817C16.695 28.1405 16.905 27.773 17.0625 27.353C17.0625 26.933 17.1937 26.4342 17.1937 25.8305V25.1217C16.6687 24.938 16.1437 24.938 15.5662 24.8067C15.0256 24.7476 14.4825 24.7126 13.9387 24.7017C12.7575 24.7017 11.9175 24.938 11.34 25.4105C10.7625 25.883 10.5 26.5392 10.5 27.4055C10.5 28.2455 10.6837 28.8755 11.13 29.2692C11.55 29.7155 12.1537 29.9255 12.9675 29.9255ZM26.985 31.7892C26.7309 31.7968 26.4787 31.7428 26.25 31.6317C26.1712 31.5005 26.04 31.2642 25.935 30.9492L21.84 17.4567C21.735 17.063 21.6825 16.8792 21.6825 16.748C21.6825 16.4592 21.8137 16.3017 22.1025 16.3017H23.8087C24.15 16.3017 24.3862 16.3542 24.4912 16.4855C24.6487 16.5905 24.7537 16.8267 24.8587 17.168L27.7725 28.718L30.5025 17.168C30.5812 16.8267 30.6862 16.5905 30.8437 16.4855C30.975 16.3805 31.2112 16.3017 31.5 16.3017H32.9437C33.2587 16.3017 33.495 16.3542 33.6262 16.4855C33.7575 16.5905 33.8887 16.8267 33.9675 17.168L36.75 28.8755L39.7425 17.168C39.8475 16.8267 39.9787 16.5905 40.0837 16.4855C40.2412 16.3805 40.4512 16.3017 40.7662 16.3017H42.3937C42.6825 16.3017 42.84 16.4592 42.84 16.748C42.84 16.8267 42.8137 16.9317 42.7875 17.063C42.7875 17.063 42.735 17.273 42.6825 17.4567L38.4562 30.9492C38.3512 31.3167 38.2462 31.5005 38.0625 31.6317C37.9575 31.7367 37.7212 31.8155 37.4325 31.8155H35.9362C35.595 31.8155 35.4375 31.763 35.2275 31.6317C35.051 31.4446 34.9404 31.2049 34.9125 30.9492L32.2087 19.688L29.505 30.923C29.4262 31.2642 29.3212 31.5005 29.19 31.6317C28.9732 31.7498 28.7276 31.8044 28.4812 31.7892H26.985ZM49.4287 32.2617C48.5625 32.2617 47.5912 32.1567 46.725 31.9467C45.8587 31.7367 45.1762 31.5005 44.73 31.2642C44.502 31.1546 44.3106 30.9814 44.1787 30.7655C44.1074 30.6183 44.0715 30.4565 44.0737 30.293V29.4005C44.0737 29.033 44.205 28.8755 44.4675 28.8755H44.7825C44.8875 28.8755 45.045 29.0067 45.2287 29.0855C45.8062 29.348 46.4625 29.558 47.145 29.6892C47.8537 29.8205 48.5625 29.8992 49.2187 29.8992C50.3212 29.8992 51.1875 29.7155 51.765 29.3217C52.3687 28.8755 52.6837 28.3767 52.6837 27.668C52.6837 27.1692 52.5 26.7755 52.2112 26.4342C51.8962 26.1192 51.2925 25.8042 50.4525 25.5417L47.9062 24.7542C46.6462 24.3342 45.7012 23.7567 45.1237 22.9692C44.5602 22.2403 44.2554 21.3444 44.2575 20.423C44.2575 19.688 44.415 19.058 44.73 18.5067C45.045 17.9292 45.465 17.4567 45.9375 17.063C46.515 16.6692 47.0925 16.3805 47.8012 16.1705C48.4837 15.9605 49.2187 15.8555 50.0062 15.8555C50.3737 15.8555 50.7675 15.8817 51.1875 15.9342C51.555 15.9867 51.9225 16.0655 52.29 16.118C52.6575 16.223 52.9725 16.3017 53.2875 16.4067C53.6025 16.5117 53.8125 16.6167 54.0225 16.7217C54.2587 16.853 54.4425 16.9842 54.5475 17.1417C54.6525 17.2992 54.705 17.483 54.705 17.7192V18.5592C54.705 18.9267 54.5737 19.1105 54.3112 19.1105C54.18 19.1105 53.9437 19.0317 53.6287 18.9005C52.6575 18.4542 51.5287 18.218 50.295 18.218C49.2975 18.218 48.5625 18.3755 47.9587 18.7167C47.4337 19.0317 47.145 19.5567 47.145 20.2655C47.145 20.7642 47.3287 21.1842 47.67 21.4992C48.0112 21.8405 48.6675 22.1555 49.5862 22.4705L52.08 23.258C53.34 23.6255 54.2325 24.203 54.7837 24.938C55.3087 25.6467 55.5712 26.4605 55.5712 27.3792C55.5712 28.1142 55.4137 28.7967 55.125 29.4005C54.81 29.978 54.39 30.503 53.8125 30.923C53.3137 31.3692 52.6575 31.6842 51.9225 31.9205C51.1875 32.1567 50.295 32.2617 49.4287 32.2617ZM52.71 40.7667C46.9612 44.993 38.6137 47.2505 31.5 47.2505C21.3937 47.2505 12.3375 43.523 5.48624 37.3542C4.93499 36.8555 5.43374 36.1992 6.08999 36.593C13.4925 40.8717 22.6012 43.4705 32.0512 43.4705C38.43 43.4705 45.4387 42.158 51.87 39.3755C52.8412 38.9817 53.655 40.058 52.71 40.7667ZM55.125 38.063C54.3637 37.0917 50.2425 37.5905 48.3787 37.8005C47.8275 37.8792 47.7487 37.3805 48.2475 37.013C51.5287 34.7292 56.9362 35.438 57.54 36.1467C58.17 36.9342 57.3825 42.3417 54.3112 44.9142C53.8125 45.308 53.3662 45.098 53.5762 44.6255C54.285 42.8405 55.8337 38.9555 55.125 38.063Z" fill="#1D1A19"/>
</svg>
