<svg width="63" height="63" viewBox="0 0 63 63" fill="none" xmlns="http://www.w3.org/2000/svg">
<g clip-path="url(#clip0_5_258)">
<path d="M48.2344 0H14.7656C6.6108 0 0 6.6108 0 14.7656V48.2344C0 56.3892 6.6108 63 14.7656 63H48.2344C56.3892 63 63 56.3892 63 48.2344V14.7656C63 6.6108 56.3892 0 48.2344 0Z" fill="#242938"/>
<path d="M42.6973 24.1172H29.8389C29.9004 24.4248 30.0234 24.7324 30.085 24.9785C30.5156 26.4551 30.7617 27.9932 30.8848 29.5928C30.9463 30.208 30.9463 30.8848 30.9463 31.5C30.9463 32.1152 30.9463 32.792 30.8848 33.4072C30.7617 35.0068 30.5156 36.5449 30.085 38.0215C30.0234 38.3291 29.9004 38.6367 29.8389 38.8828H42.6973C46.7578 38.8828 50.0186 35.5605 50.0186 31.5C50.0186 27.4395 46.7578 24.1172 42.6973 24.1172Z" fill="#00A9E5"/>
<path d="M30.8848 33.4072C30.9463 32.792 30.9463 32.1152 30.9463 31.5C30.9463 30.8848 30.9463 30.208 30.8848 29.5928C30.7617 27.9932 30.5156 26.4551 30.085 24.9785C30.0234 24.6709 29.9004 24.3633 29.8389 24.1172H9.9668C9.22852 26.4551 8.85938 28.916 8.85938 31.5C8.85938 34.084 9.22852 36.5449 9.9668 38.8828H29.8389C29.9004 38.5752 30.0234 38.2676 30.085 38.0215C30.5156 36.5449 30.7617 35.0068 30.8848 33.4072Z" fill="#353535"/>
<path d="M44.9121 41.3438H28.916C28.4238 42.4512 27.8701 43.4971 27.2549 44.4814C26.332 46.0195 25.2246 47.373 23.9941 48.665C23.5635 49.0957 23.1328 49.4648 22.7021 49.8955C21.8408 50.6953 20.8564 51.3721 19.8721 52.0488C23.748 54.6328 28.4238 56.1094 33.4072 56.1094C41.959 56.1094 49.4648 51.7412 53.8945 45.1582C51.6182 42.8203 48.4189 41.3438 44.9121 41.3438Z" fill="#00BFB3"/>
<path d="M27.2549 44.4814C27.8701 43.4971 28.4238 42.4512 28.916 41.3438H10.8896C12.7969 45.7119 15.9346 49.4648 19.9336 52.0488C20.918 51.3721 21.8408 50.6953 22.7637 49.8955C23.1943 49.5264 23.625 49.0957 24.0557 48.665C25.2246 47.4346 26.332 46.0195 27.2549 44.4814Z" fill="#019B8F"/>
<path d="M23.9941 14.335C23.5635 13.9043 23.1328 13.5352 22.7021 13.1045C21.8408 12.3047 20.8564 11.6279 19.8721 10.9512C15.9346 13.5352 12.7969 17.2881 10.8281 21.6562H28.916C28.4238 20.5488 27.8086 19.4414 27.1934 18.457C26.332 16.9189 25.2246 15.5654 23.9941 14.335Z" fill="#F9B110"/>
<path d="M33.4072 6.89062C28.4238 6.89062 23.748 8.36719 19.8721 10.9512C20.8564 11.6279 21.7793 12.3047 22.7021 13.1045C23.1328 13.4736 23.5635 13.9043 23.9941 14.335C25.2246 15.627 26.332 16.9805 27.2549 18.5186C27.8701 19.5029 28.4238 20.5488 28.916 21.6562H44.9121C48.4189 21.6562 51.6182 20.1797 53.8945 17.8418C49.4648 11.2588 41.959 6.89062 33.4072 6.89062Z" fill="#FED10A"/>
</g>
<defs>
<clipPath id="clip0_5_258">
<rect width="63" height="63" fill="white"/>
</clipPath>
</defs>
</svg>
