<svg width="1888" height="856" viewBox="0 0 1888 856" fill="none" xmlns="http://www.w3.org/2000/svg">
<g clip-path="url(#clip0_48_20)">
<path d="M-7.87842 329.194L46.3155 383.388C49.769 386.576 56.6761 395.98 56.6761 408.094C56.6761 420.208 56.6761 540.657 56.6761 599.367C56.4104 602.555 58.5888 611.321 69.4276 620.885C80.2664 630.449 294.439 842.177 400.17 946.845C405.483 953.221 419.297 965.973 432.049 965.973C444.8 965.973 778.996 965.973 944.5 965.973" stroke="#605A57" stroke-opacity="0.23"/>
<path d="M232.009 -3.14258V66.1937C232.009 69.6473 232.487 77.6701 234.4 82.1331C236.313 86.5962 238.916 89.3058 239.979 90.1028L484.648 336.366C485.711 337.695 488.315 341.467 490.227 345.93C492.14 350.393 492.087 355.759 491.821 357.884L492.618 456.709C492.618 459.897 493.734 467.707 498.197 473.445C502.66 479.183 582.941 558.721 622.524 597.772C626.243 601.757 636.073 609.886 645.636 610.524C655.2 611.161 848.863 610.789 944.5 610.524" stroke="#605A57" stroke-opacity="0.23"/>
<path d="M408.937 -13.5029L435.237 10.4061C440.975 18.6946 442.409 29.7991 442.409 34.3152V215.227C442.675 218.149 443.684 224.95 445.597 228.776C447.51 232.601 451.176 237.277 452.77 239.136L721.348 507.715C722.677 509.043 726.449 512.178 730.912 514.091C735.375 516.003 741.273 516.482 743.664 516.482H944.5" stroke="#605A57" stroke-opacity="0.23"/>
<path d="M73.4124 -4.73584L277.436 200.882C280.359 204.07 286.203 212.677 286.203 221.603C286.203 230.529 286.203 323.084 286.203 368.246C286.469 372.762 288.435 383.548 294.173 390.561C299.911 397.574 485.711 582.099 577.894 673.485C583.207 679.861 597.499 692.612 612.164 692.612C626.828 692.612 839.831 692.612 944.5 692.612" stroke="#605A57" stroke-opacity="0.23"/>
<path d="M-2.2998 196.1L224.039 423.236C226.696 425.893 232.009 433.597 232.009 443.161C232.009 452.724 232.009 492.838 232.009 511.7C232.009 516.747 233.603 528.436 239.979 534.812C246.355 541.188 415.312 705.895 498.994 787.451C504.838 794.89 519.715 809.926 532.467 810.563C545.218 811.201 812.468 810.829 944.5 810.563" stroke="#605A57" stroke-opacity="0.23"/>
<rect x="219.258" y="6.42139" width="25.5029" height="25.5029" rx="1" fill="#1D1A19"/>
<rect x="219.758" y="6.92139" width="24.5029" height="24.5029" rx="0.5" stroke="#605A57" stroke-opacity="0.23"/>
<rect x="85.3667" y="26.0488" width="25.5029" height="25.5029" rx="1" transform="rotate(-45 85.3667 26.0488)" fill="#1D1A19"/>
<rect x="86.0738" y="26.0488" width="24.5029" height="24.5029" rx="0.5" transform="rotate(-45 86.0738 26.0488)" stroke="#605A57" stroke-opacity="0.23"/>
<path d="M435.605 9.54875C435.804 10.2923 435.124 10.9727 434.38 10.7735L408.771 3.91155C408.028 3.71232 407.779 2.78285 408.323 2.23852L427.07 -16.5086C427.614 -17.053 428.544 -16.8039 428.743 -16.0604L435.605 9.54875Z" fill="#1D1A19"/>
<path d="M435.122 9.67819C435.222 10.05 434.881 10.3903 434.51 10.2907L408.9 3.42816C408.529 3.32841 408.404 2.86405 408.676 2.59193L427.423 -16.1554C427.695 -16.4275 428.16 -16.3026 428.26 -15.931L435.122 9.67819Z" stroke="#605A57" stroke-opacity="0.23"/>
<path d="M35.5594 232.735C35.7587 233.478 35.0782 234.159 34.3347 233.96L8.72556 227.098C7.98199 226.898 7.73294 225.969 8.27728 225.425L27.0244 206.677C27.5688 206.133 28.4982 206.382 28.6975 207.126L35.5594 232.735Z" fill="#1D1A19"/>
<path d="M35.0764 232.864C35.176 233.236 34.8357 233.576 34.4639 233.477L8.85479 226.614C8.48329 226.514 8.35847 226.05 8.63036 225.778L27.3777 207.031C27.6498 206.759 28.1142 206.883 28.2139 207.255L35.0764 232.864Z" stroke="#605A57" stroke-opacity="0.23"/>
<circle cx="-7.08172" cy="328.397" r="19.1273" fill="#1D1A19"/>
<circle cx="-7.08172" cy="328.397" r="18.6273" stroke="#605A57" stroke-opacity="0.23"/>
<path d="M1896.88 329.229L1842.69 383.423C1839.23 386.611 1832.32 396.015 1832.32 408.129C1832.32 420.243 1832.32 540.691 1832.32 599.401C1832.59 602.589 1830.41 611.355 1819.57 620.919C1808.73 630.482 1594.56 842.21 1488.83 946.878C1483.52 953.254 1469.7 966.005 1456.95 966.005C1444.2 966.005 1110 966.005 944.501 966.005" stroke="#605A57" stroke-opacity="0.23"/>
<path d="M1656.99 -3.10645V66.2296C1656.99 69.6831 1656.51 77.7059 1654.6 82.1689C1652.69 86.6319 1650.08 89.3416 1649.02 90.1385L1404.35 336.401C1403.29 337.729 1400.69 341.502 1398.77 345.965C1396.86 350.428 1396.91 355.794 1397.18 357.919L1396.38 456.743C1396.38 459.931 1395.27 467.741 1390.8 473.479C1386.34 479.217 1306.06 558.754 1266.48 597.806C1262.76 601.791 1252.93 609.92 1243.36 610.557C1233.8 611.195 1040.14 610.823 944.501 610.557" stroke="#605A57" stroke-opacity="0.23"/>
<path d="M1480.06 -13.4653L1453.76 10.4436C1448.03 18.7321 1446.59 29.8365 1446.59 34.3526V215.264C1446.33 218.186 1445.32 224.987 1443.4 228.812C1441.49 232.638 1437.82 237.313 1436.23 239.173L1167.65 507.75C1166.32 509.078 1162.55 512.213 1158.09 514.126C1153.62 516.039 1147.73 516.517 1145.34 516.517H944.5" stroke="#605A57" stroke-opacity="0.23"/>
<path d="M1815.59 -4.7002L1611.56 200.917C1608.64 204.105 1602.8 212.712 1602.8 221.638C1602.8 230.564 1602.8 323.118 1602.8 368.28C1602.53 372.796 1600.57 383.581 1594.83 390.595C1589.09 397.608 1403.29 582.132 1311.11 673.518C1305.79 679.893 1291.5 692.645 1276.84 692.645C1262.17 692.645 1049.17 692.645 944.501 692.645" stroke="#605A57" stroke-opacity="0.23"/>
<path d="M1891.3 196.138L1664.96 423.273C1662.3 425.929 1656.99 433.633 1656.99 443.197C1656.99 452.761 1656.99 492.875 1656.99 511.736C1656.99 516.784 1655.4 528.472 1649.02 534.848C1642.65 541.224 1473.69 705.93 1390.01 787.486C1384.16 794.925 1369.29 809.961 1356.53 810.598C1343.78 811.236 1076.53 810.864 944.5 810.598" stroke="#605A57" stroke-opacity="0.23"/>
<rect width="25.5019" height="25.5019" rx="1" transform="matrix(-1 0 0 1 1669.74 6.45703)" fill="#1D1A19"/>
<rect x="-0.5" y="0.5" width="24.5019" height="24.5019" rx="0.5" transform="matrix(-1 0 0 1 1668.74 6.45703)" stroke="#605A57" stroke-opacity="0.23"/>
<rect width="25.5019" height="25.5019" rx="1" transform="matrix(-0.707108 -0.707105 -0.707108 0.707105 1803.63 26.0845)" fill="#1D1A19"/>
<rect x="-0.707108" width="24.5019" height="24.5019" rx="0.5" transform="matrix(-0.707108 -0.707105 -0.707108 0.707105 1802.43 25.5845)" stroke="#605A57" stroke-opacity="0.23"/>
<path d="M1453.39 9.58292C1453.2 10.3265 1453.88 11.0069 1454.62 10.8077L1480.23 3.94604C1480.97 3.7468 1481.22 2.81734 1480.68 2.27301L1461.93 -16.4733C1461.39 -17.0176 1460.46 -16.7686 1460.26 -16.025L1453.39 9.58292Z" fill="#1D1A19"/>
<path d="M1453.88 9.71214C1453.78 10.0839 1454.12 10.4242 1454.49 10.3246L1480.1 3.46282C1480.47 3.36296 1480.59 2.89796 1480.32 2.6259L1461.58 -16.12C1461.3 -16.392 1460.84 -16.2676 1460.74 -15.8963L1453.88 9.71214Z" stroke="#605A57" stroke-opacity="0.23"/>
<path d="M1853.44 232.768C1853.24 233.512 1853.92 234.192 1854.66 233.993L1880.27 227.132C1881.02 226.932 1881.27 226.003 1880.72 225.459L1861.97 206.712C1861.43 206.168 1860.5 206.417 1860.3 207.161L1853.44 232.768Z" fill="#1D1A19"/>
<path d="M1853.92 232.898C1853.82 233.269 1854.16 233.61 1854.54 233.51L1880.14 226.648C1880.52 226.549 1880.64 226.084 1880.37 225.811L1861.62 207.066C1861.35 206.794 1860.88 206.918 1860.78 207.289L1853.92 232.898Z" stroke="#605A57" stroke-opacity="0.23"/>
<circle cx="19.1265" cy="19.1265" r="19.1265" transform="matrix(-1 0 0 1 1915.21 309.304)" fill="#1D1A19"/>
<circle cx="19.1265" cy="19.1265" r="18.6265" transform="matrix(-1 0 0 1 1915.21 309.304)" stroke="#605A57" stroke-opacity="0.23"/>
</g>
<defs>
<clipPath id="clip0_48_20">
<rect width="1888" height="966" fill="white"/>
</clipPath>
</defs>
</svg>
