<svg width="63" height="60" viewBox="0 0 63 60" fill="none" xmlns="http://www.w3.org/2000/svg">
<g clip-path="url(#clip0_5_162)">
<path d="M21.0034 0.000743802H39.6442L20.2932 57.7686C20.0943 58.3622 19.7157 58.878 19.2106 59.2434C18.7055 59.6088 18.0994 59.8055 17.4776 59.8056H2.97035C2.49928 59.8056 2.03498 59.6926 1.61586 59.4759C1.19673 59.2592 0.83482 58.9451 0.560052 58.5596C0.285283 58.1741 0.105551 57.7282 0.0357188 57.2588C-0.0341133 56.7894 0.00796075 56.31 0.158462 55.8602L18.1871 2.03777C18.3859 1.44392 18.7646 0.927875 19.2698 0.562307C19.775 0.196739 20.3814 7.03818e-05 21.0034 0V0.000743802Z" fill="url(#paint0_linear_5_162)"/>
<path d="M48.0911 38.748H18.5312C18.2564 38.7478 17.9879 38.8309 17.7607 38.9866C17.5335 39.1423 17.358 39.3633 17.2572 39.6209C17.1564 39.8785 17.135 40.1606 17.1956 40.4307C17.2562 40.7007 17.3961 40.9461 17.5971 41.1349L36.5916 58.9978C37.1447 59.5173 37.8728 59.8062 38.6291 59.8061H55.367L48.0911 38.748Z" fill="#0078D4"/>
<path d="M21.0032 0.000998405C20.3744 -0.00143063 19.7613 0.198789 19.2534 0.57241C18.7456 0.946031 18.3696 1.47347 18.1805 2.07769L0.180421 55.8114C0.0196977 56.2628 -0.0307525 56.7466 0.0333378 57.2219C0.0974282 57.6971 0.274174 58.1498 0.548623 58.5416C0.823073 58.9335 1.18715 59.253 1.61007 59.4731C2.03298 59.6932 2.50228 59.8074 2.97828 59.8061H17.8596C18.4138 59.7063 18.9318 59.46 19.3607 59.0925C19.7896 58.725 20.1141 58.2494 20.3009 57.7143L23.8906 47.0554L36.7123 59.105C37.2497 59.5528 37.9238 59.8004 38.6211 59.8061H55.2966L47.983 38.7479L26.6624 38.7528L39.7115 0.000998405H21.0032Z" fill="url(#paint1_linear_5_162)"/>
<path d="M44.812 2.03503C44.6135 1.44215 44.2353 0.926976 43.7308 0.562072C43.2263 0.197167 42.6209 0.000921365 41.9999 0.000976574H21.2251C22.4985 0.000976574 23.63 0.819406 24.0372 2.03503L42.0663 55.8597C42.2171 56.3096 42.2593 56.7892 42.1896 57.2588C42.1198 57.7284 41.9401 58.1745 41.6653 58.5602C41.3905 58.9459 41.0285 59.2602 40.6092 59.477C40.1899 59.6938 39.7255 59.8068 39.2542 59.8068H60.03C60.5012 59.8067 60.9656 59.6936 61.3847 59.4767C61.8039 59.2599 62.1658 58.9456 62.4406 58.5599C62.7153 58.1742 62.8949 57.7281 62.9646 57.2586C63.0343 56.7891 62.9921 56.3096 62.8414 55.8597L44.812 2.03503Z" fill="url(#paint2_linear_5_162)"/>
</g>
<defs>
<linearGradient id="paint0_linear_5_162" x1="2337.73" y1="443.219" x2="487.298" y2="5868.93" gradientUnits="userSpaceOnUse">
<stop stop-color="#114A8B"/>
<stop offset="1" stop-color="#0669BC"/>
</linearGradient>
<linearGradient id="paint1_linear_5_162" x1="3301.88" y1="3128.59" x2="2906.62" y2="3261.23" gradientUnits="userSpaceOnUse">
<stop stop-opacity="0.3"/>
<stop offset="0.071" stop-opacity="0.2"/>
<stop offset="0.321" stop-opacity="0.1"/>
<stop offset="0.623" stop-opacity="0.05"/>
<stop offset="1" stop-opacity="0"/>
</linearGradient>
<linearGradient id="paint2_linear_5_162" x1="1578.45" y1="275.108" x2="3597.44" y2="5613.79" gradientUnits="userSpaceOnUse">
<stop stop-color="#3CCBF4"/>
<stop offset="1" stop-color="#2892DF"/>
</linearGradient>
<clipPath id="clip0_5_162">
<rect width="63" height="60" fill="white"/>
</clipPath>
</defs>
</svg>
