<svg width="16" height="16" viewBox="0 0 16 16" fill="none" xmlns="http://www.w3.org/2000/svg">
<g clip-path="url(#clip0_43_126)">
<path d="M5.57374 0.526614C3.97509 1.0812 2.59642 2.13382 1.64023 3.52987C0.684041 4.92591 0.200732 6.59179 0.261296 8.28282C0.32186 9.97385 0.923104 11.6009 1.97671 12.925C3.03032 14.249 4.48077 15.2003 6.11499 15.6391C7.4399 15.981 8.828 15.996 10.16 15.6829C11.3666 15.4118 12.4822 14.8321 13.3975 14.0004C14.3501 13.1083 15.0415 11.9735 15.3975 10.7179C15.7844 9.35245 15.8532 7.91653 15.5987 6.52036H8.15874V9.60662H12.4675C12.3814 10.0988 12.1968 10.5687 11.9249 10.9879C11.653 11.4072 11.2993 11.7672 10.885 12.0466C10.3588 12.3947 9.76574 12.6288 9.14374 12.7341C8.51992 12.8501 7.88006 12.8501 7.25624 12.7341C6.62398 12.6034 6.02587 12.3424 5.49999 11.9679C4.65518 11.3698 4.02084 10.5203 3.68749 9.54037C3.34851 8.54211 3.34851 7.45987 3.68749 6.46161C3.92478 5.76188 4.31703 5.12478 4.83499 4.59786C5.42773 3.9838 6.17816 3.54486 7.00394 3.32921C7.82972 3.11356 8.69894 3.12953 9.51624 3.37536C10.1547 3.57135 10.7386 3.91379 11.2212 4.37536C11.7071 3.89203 12.1921 3.40745 12.6762 2.92161C12.9262 2.66036 13.1987 2.41161 13.445 2.14411C12.7082 1.45846 11.8433 0.924935 10.9 0.574114C9.18212 -0.0496489 7.30246 -0.0664119 5.57374 0.526614Z" fill="white"/>
<path d="M5.57372 0.526245C7.3023 -0.067184 9.18196 -0.0508623 10.9 0.572495C11.8435 0.925699 12.7079 1.46179 13.4437 2.14999C13.1937 2.41749 12.93 2.66749 12.675 2.92749C12.19 3.41166 11.7054 3.89416 11.2212 4.37499C10.7385 3.91342 10.1547 3.57098 9.51622 3.37499C8.69919 3.1283 7.82999 3.1114 7.00399 3.32617C6.178 3.54094 5.42711 3.97907 4.83372 4.59249C4.31576 5.11941 3.9235 5.75652 3.68622 6.45624L1.09497 4.44999C2.02248 2.6107 3.62841 1.20377 5.57372 0.526245Z" fill="#E33629"/>
<path d="M0.40756 6.4377C0.546836 5.74744 0.778065 5.07898 1.09506 4.4502L3.68631 6.46145C3.34733 7.4597 3.34733 8.54194 3.68631 9.5402C2.82298 10.2069 1.95923 10.8769 1.09506 11.5502C0.301498 9.97059 0.0594757 8.17082 0.40756 6.4377Z" fill="#F8BD00"/>
<path d="M8.15876 6.51855H15.5988C15.8533 7.91472 15.7844 9.35064 15.3975 10.7161C15.0416 11.9717 14.3501 13.1065 13.3975 13.9986C12.5613 13.3461 11.7213 12.6986 10.885 12.0461C11.2996 11.7664 11.6535 11.4059 11.9254 10.9862C12.1973 10.5665 12.3817 10.0962 12.4675 9.60355H8.15876C8.15751 8.57605 8.15876 7.5473 8.15876 6.51855Z" fill="#587DBD"/>
<path d="M1.09375 11.55C1.95792 10.8834 2.82167 10.2134 3.685 9.54004C4.01901 10.5203 4.65426 11.3699 5.5 11.9675C6.02751 12.3404 6.62691 12.5992 7.26 12.7275C7.88382 12.8435 8.52368 12.8435 9.1475 12.7275C9.7695 12.6223 10.3626 12.3881 10.8888 12.04C11.725 12.6925 12.565 13.34 13.4013 13.9925C12.4861 14.8247 11.3705 15.4049 10.1638 15.6763C8.83176 15.9894 7.44365 15.9744 6.11875 15.6325C5.07088 15.3528 4.09209 14.8595 3.24375 14.1838C2.34583 13.4709 1.61244 12.5725 1.09375 11.55Z" fill="#319F43"/>
</g>
<defs>
<clipPath id="clip0_43_126">
<rect width="16" height="16" fill="white"/>
</clipPath>
</defs>
</svg>
