<svg width="1200" height="607" viewBox="0 0 1200 607" fill="none" xmlns="http://www.w3.org/2000/svg">
<g clip-path="url(#clip0_13_461)">
<path d="M2.5 207.521L36.5 241.521C38.6667 243.521 43 249.421 43 257.021C43 264.621 43 340.188 43 377.021C42.8333 379.021 44.2 384.521 51 390.521C57.8 396.521 192.167 529.355 258.5 595.021C261.833 599.021 270.5 607.021 278.5 607.021C286.5 607.021 496.167 607.021 600 607.021" stroke="#605A57" stroke-opacity="0.23"/>
<path d="M153 -0.978516V42.5215C153 44.6882 153.3 49.7215 154.5 52.5215C155.7 55.3215 157.333 57.0215 158 57.5215L311.5 212.021C312.167 212.855 313.8 215.221 315 218.021C316.2 220.821 316.167 224.188 316 225.521L316.5 287.521C316.5 289.521 317.2 294.421 320 298.021C322.8 301.621 373.167 351.521 398 376.021C400.333 378.521 406.5 383.621 412.5 384.021C418.5 384.421 540 384.188 600 384.021" stroke="#605A57" stroke-opacity="0.23"/>
<path d="M264 -7.47852L280.5 7.52148C284.1 12.7215 285 19.6882 285 22.5215V136.021C285.167 137.855 285.8 142.121 287 144.521C288.2 146.921 290.5 149.855 291.5 151.021L460 319.521C460.833 320.355 463.2 322.321 466 323.521C468.8 324.721 472.5 325.021 474 325.021H600" stroke="#605A57" stroke-opacity="0.23"/>
<path d="M53.5 -1.97852L181.5 127.021C183.333 129.021 187 134.421 187 140.021C187 145.621 187 203.688 187 232.021C187.167 234.855 188.4 241.621 192 246.021C195.6 250.421 312.167 366.188 370 423.521C373.333 427.521 382.3 435.521 391.5 435.521C400.7 435.521 534.333 435.521 600 435.521" stroke="#605A57" stroke-opacity="0.23"/>
<path d="M6 124.021L148 266.521C149.667 268.188 153 273.021 153 279.021C153 285.021 153 310.188 153 322.021C153 325.188 154 332.521 158 336.521C162 340.521 268 443.855 320.5 495.021C324.167 499.688 333.5 509.121 341.5 509.521C349.5 509.921 517.167 509.688 600 509.521" stroke="#605A57" stroke-opacity="0.23"/>
<rect x="145" y="5.02148" width="16" height="16" rx="1" fill="#FBFAF9"/>
<rect x="145.5" y="5.52148" width="15" height="15" rx="0.5" stroke="#605A57" stroke-opacity="0.23"/>
<rect x="61" y="17.335" width="16" height="16" rx="1" transform="rotate(-45 61 17.335)" fill="#FBFAF9"/>
<rect x="61.7071" y="17.335" width="15" height="15" rx="0.5" transform="rotate(-45 61.7071 17.335)" stroke="#605A57" stroke-opacity="0.23"/>
<path d="M280.564 6.36021C280.763 7.10378 280.083 7.78419 279.339 7.58495L264.52 3.61402C263.776 3.41478 263.527 2.48532 264.071 1.94098L274.92 -8.90782C275.464 -9.45215 276.394 -9.2031 276.593 -8.45953L280.564 6.36021Z" fill="#FBFAF9"/>
<path d="M280.081 6.48948C280.181 6.86126 279.841 7.2016 279.469 7.10199L264.649 3.13072C264.277 3.03111 264.153 2.56666 264.425 2.29449L275.274 -8.55449C275.546 -8.82645 276.01 -8.70178 276.11 -8.33007L280.081 6.48948Z" stroke="#605A57" stroke-opacity="0.23"/>
<path d="M29.5851 146.382C29.7844 147.125 29.1039 147.806 28.3604 147.606L13.5406 143.636C12.7971 143.436 12.548 142.507 13.0923 141.962L23.9412 131.114C24.4855 130.569 25.4149 130.818 25.6142 131.562L29.5851 146.382Z" fill="#FBFAF9"/>
<path d="M29.1023 146.511C29.2019 146.883 28.8616 147.223 28.4898 147.123L13.6702 143.152C13.2985 143.053 13.1737 142.588 13.4458 142.316L24.2948 131.467C24.567 131.195 25.0314 131.32 25.131 131.691L29.1023 146.511Z" stroke="#605A57" stroke-opacity="0.23"/>
<circle cx="3" cy="207.021" r="12" fill="#FBFAF9"/>
<circle cx="3" cy="207.021" r="11.5" stroke="#605A57" stroke-opacity="0.23"/>
<path d="M1197.5 207.544L1163.5 241.544C1161.33 243.544 1157 249.444 1157 257.044C1157 264.644 1157 340.21 1157 377.043C1157.17 379.043 1155.8 384.543 1149 390.543C1142.2 396.543 1007.83 529.376 941.5 595.042C938.167 599.042 929.5 607.042 921.5 607.042C913.5 607.042 703.833 607.042 600 607.042" stroke="#605A57" stroke-opacity="0.23"/>
<path d="M1047 -0.956055V42.5438C1047 44.7104 1046.7 49.7437 1045.5 52.5437C1044.3 55.3437 1042.67 57.0437 1042 57.5437L888.5 212.043C887.834 212.876 886.2 215.243 885 218.043C883.8 220.843 883.834 224.21 884 225.543L883.5 287.543C883.5 289.543 882.8 294.443 880 298.043C877.2 301.643 826.834 351.542 802 376.042C799.667 378.542 793.5 383.642 787.5 384.042C781.5 384.442 660 384.209 600 384.042" stroke="#605A57" stroke-opacity="0.23"/>
<path d="M936 -7.45508L919.5 7.54485C915.9 12.7448 915 19.7115 915 22.5448V136.044C914.833 137.878 914.2 142.144 913 144.544C911.8 146.944 909.5 149.878 908.5 151.044L740 319.543C739.167 320.377 736.8 322.343 734 323.543C731.2 324.743 727.5 325.043 726 325.043H600" stroke="#605A57" stroke-opacity="0.23"/>
<path d="M1146.5 -1.95605L1018.5 127.043C1016.67 129.043 1013 134.443 1013 140.043C1013 145.643 1013 203.71 1013 232.043C1012.83 234.876 1011.6 241.643 1008 246.043C1004.4 250.443 887.833 366.209 830 423.542C826.667 427.542 817.7 435.542 808.5 435.542C799.3 435.542 665.667 435.542 600 435.542" stroke="#605A57" stroke-opacity="0.23"/>
<path d="M1194 124.045L1052 266.544C1050.33 268.211 1047 273.044 1047 279.044C1047 285.044 1047 310.211 1047 322.044C1047 325.211 1046 332.544 1042 336.544C1038 340.544 932 443.877 879.5 495.043C875.833 499.71 866.5 509.143 858.5 509.543C850.5 509.943 682.833 509.71 600 509.543" stroke="#605A57" stroke-opacity="0.23"/>
<rect width="15.9994" height="15.9994" rx="1" transform="matrix(-1 0 0 1 1055 5.04395)" fill="#FBFAF9"/>
<rect x="-0.5" y="0.5" width="14.9994" height="14.9994" rx="0.5" transform="matrix(-1 0 0 1 1054 5.04395)" stroke="#605A57" stroke-opacity="0.23"/>
<rect width="15.9994" height="15.9994" rx="1" transform="matrix(-0.707108 -0.707105 -0.707108 0.707105 1139 17.3574)" fill="#FBFAF9"/>
<rect x="-0.707108" width="14.9994" height="14.9994" rx="0.5" transform="matrix(-0.707108 -0.707105 -0.707108 0.707105 1137.79 16.8574)" stroke="#605A57" stroke-opacity="0.23"/>
<path d="M919.436 6.38138C919.237 7.12495 919.917 7.80536 920.661 7.60613L935.48 3.63538C936.223 3.43615 936.472 2.50669 935.928 1.96236L925.08 -8.88591C924.535 -9.43024 923.606 -9.18119 923.407 -8.43762L919.436 6.38138Z" fill="#FBFAF9"/>
<path d="M919.919 6.51095C919.819 6.88269 920.16 7.22306 920.531 7.12346L935.35 3.15289C935.722 3.05327 935.846 2.58813 935.574 2.31597L924.726 -8.5323C924.454 -8.80431 923.989 -8.6796 923.89 -8.30787L919.919 6.51095Z" stroke="#605A57" stroke-opacity="0.23"/>
<path d="M1170.41 146.403C1170.22 147.146 1170.9 147.827 1171.64 147.628L1186.46 143.657C1187.2 143.458 1187.45 142.528 1186.91 141.984L1176.06 131.136C1175.51 130.591 1174.58 130.84 1174.39 131.584L1170.41 146.403Z" fill="#FBFAF9"/>
<path d="M1170.9 146.532C1170.8 146.904 1171.14 147.245 1171.51 147.145L1186.33 143.174C1186.7 143.075 1186.83 142.61 1186.55 142.337L1175.7 131.489C1175.43 131.217 1174.97 131.342 1174.87 131.714L1170.9 146.532Z" stroke="#605A57" stroke-opacity="0.23"/>
<circle cx="11.9995" cy="11.9995" r="11.9995" transform="matrix(-1 0 0 1 1209 195.043)" fill="#FBFAF9"/>
<circle cx="11.9995" cy="11.9995" r="11.4995" transform="matrix(-1 0 0 1 1209 195.043)" stroke="#605A57" stroke-opacity="0.23"/>
</g>
<defs>
<clipPath id="clip0_13_461">
<rect width="1200" height="608" fill="white" transform="translate(0 -1)"/>
</clipPath>
</defs>
</svg>
